<mxfile host="Electron" modified="2025-01-28T10:02:10.549Z" agent="Mozilla/5.0 (X11; Linux x86_64) AppleWebKit/537.36 (KHTML, like Gecko) draw.io/21.7.5 Chrome/114.0.5735.289 Electron/25.8.1 Safari/537.36" etag="wN8ls_ufmtJF4ywOuiR2" version="21.7.5" type="device">
  <diagram name="Page-1" id="mT3KLonHiAo77rmEHefQ">
    <mxGraphModel dx="3720" dy="1853" grid="1" gridSize="10" guides="1" tooltips="1" connect="1" arrows="1" fold="1" page="1" pageScale="1" pageWidth="827" pageHeight="1169" math="0" shadow="0">
      <root>
        <mxCell id="0" />
        <mxCell id="1" parent="0" />
        <mxCell id="RDQSzWo8FJggzqwJXyAk-1" value="req [Paquet] Exigences system" style="shape=umlFrame;whiteSpace=wrap;html=1;pointerEvents=0;recursiveResize=0;container=1;collapsible=0;width=210;height=30;" parent="1" vertex="1">
          <mxGeometry x="20" y="30" width="2890" height="1840" as="geometry" />
        </mxCell>
        <mxCell id="RDQSzWo8FJggzqwJXyAk-2" value="&amp;lt;&amp;lt;requirement&amp;gt;&amp;gt;&lt;br&gt;&lt;b&gt;Exigences Fonctionnelles&lt;/b&gt;" style="swimlane;fontStyle=0;align=center;verticalAlign=top;childLayout=stackLayout;horizontal=1;startSize=40;horizontalStack=0;resizeParent=1;resizeParentMax=0;resizeLast=0;collapsible=0;marginBottom=0;html=1;whiteSpace=wrap;" parent="RDQSzWo8FJggzqwJXyAk-1" vertex="1">
          <mxGeometry x="970" y="30" width="180" height="90" as="geometry" />
        </mxCell>
        <mxCell id="RDQSzWo8FJggzqwJXyAk-3" value="Id = &quot;1&quot;&lt;br&gt;Text = &quot; &quot;" style="text;html=1;strokeColor=none;fillColor=none;align=left;verticalAlign=middle;spacingLeft=4;spacingRight=4;overflow=hidden;rotatable=0;points=[[0,0.5],[1,0.5]];portConstraint=eastwest;whiteSpace=wrap;" parent="RDQSzWo8FJggzqwJXyAk-2" vertex="1">
          <mxGeometry y="40" width="180" height="50" as="geometry" />
        </mxCell>
        <mxCell id="RDQSzWo8FJggzqwJXyAk-4" value="&amp;lt;&amp;lt;requirement&amp;gt;&amp;gt;&lt;br&gt;&lt;strong&gt;&amp;nbsp;Mesure température&lt;/strong&gt;" style="swimlane;fontStyle=0;align=center;verticalAlign=top;childLayout=stackLayout;horizontal=1;startSize=50;horizontalStack=0;resizeParent=1;resizeParentMax=0;resizeLast=0;collapsible=0;marginBottom=0;html=1;whiteSpace=wrap;" parent="RDQSzWo8FJggzqwJXyAk-1" vertex="1">
          <mxGeometry x="40" y="430" width="180" height="150" as="geometry" />
        </mxCell>
        <mxCell id="RDQSzWo8FJggzqwJXyAk-5" value="Id = &quot;1.1.1&quot;&lt;br&gt;Text = &quot;Mesure de température : Plage -10°C à +50°C avec une précision de ±2°C.&quot;" style="text;html=1;strokeColor=none;fillColor=none;align=left;verticalAlign=middle;spacingLeft=4;spacingRight=4;overflow=hidden;rotatable=0;points=[[0,0.5],[1,0.5]];portConstraint=eastwest;whiteSpace=wrap;" parent="RDQSzWo8FJggzqwJXyAk-4" vertex="1">
          <mxGeometry y="50" width="180" height="100" as="geometry" />
        </mxCell>
        <mxCell id="RDQSzWo8FJggzqwJXyAk-12" value="&amp;lt;&amp;lt;requirement&amp;gt;&amp;gt;&lt;br&gt;&lt;b&gt;Mesure humidité&lt;/b&gt;" style="swimlane;fontStyle=0;align=center;verticalAlign=top;childLayout=stackLayout;horizontal=1;startSize=50;horizontalStack=0;resizeParent=1;resizeParentMax=0;resizeLast=0;collapsible=0;marginBottom=0;html=1;whiteSpace=wrap;" parent="RDQSzWo8FJggzqwJXyAk-1" vertex="1">
          <mxGeometry x="340" y="430" width="180" height="150" as="geometry" />
        </mxCell>
        <mxCell id="RDQSzWo8FJggzqwJXyAk-13" value="Id = &quot;1.1.2&quot;&lt;br&gt;Text = &quot;&lt;strong&gt;Mesure d&#39;humidité relative&lt;/strong&gt; : Plage 0 à 100%, précision de 0.8% à 25°C.&quot;" style="text;html=1;strokeColor=none;fillColor=none;align=left;verticalAlign=middle;spacingLeft=4;spacingRight=4;overflow=hidden;rotatable=0;points=[[0,0.5],[1,0.5]];portConstraint=eastwest;whiteSpace=wrap;" parent="RDQSzWo8FJggzqwJXyAk-12" vertex="1">
          <mxGeometry y="50" width="180" height="100" as="geometry" />
        </mxCell>
        <mxCell id="RDQSzWo8FJggzqwJXyAk-16" value="&amp;lt;&amp;lt;requirement&amp;gt;&amp;gt;&lt;br&gt;&lt;b&gt;Interface utilisateur&lt;/b&gt;" style="swimlane;fontStyle=0;align=center;verticalAlign=top;childLayout=stackLayout;horizontal=1;startSize=50;horizontalStack=0;resizeParent=1;resizeParentMax=0;resizeLast=0;collapsible=0;marginBottom=0;html=1;whiteSpace=wrap;" parent="RDQSzWo8FJggzqwJXyAk-1" vertex="1">
          <mxGeometry x="930" y="400" width="180" height="180" as="geometry" />
        </mxCell>
        <mxCell id="RDQSzWo8FJggzqwJXyAk-17" value="Id = &quot;1.2.2&quot;&lt;br&gt;Text = &quot;&lt;b&gt;I&lt;/b&gt;nteraction utilisateur : Configuration des seuils d&#39;alerte, consultation des données, export des mesures.&quot;" style="text;html=1;strokeColor=none;fillColor=none;align=left;verticalAlign=middle;spacingLeft=4;spacingRight=4;overflow=hidden;rotatable=0;points=[[0,0.5],[1,0.5]];portConstraint=eastwest;whiteSpace=wrap;" parent="RDQSzWo8FJggzqwJXyAk-16" vertex="1">
          <mxGeometry y="50" width="180" height="130" as="geometry" />
        </mxCell>
        <mxCell id="RDQSzWo8FJggzqwJXyAk-20" value="&amp;lt;&amp;lt;requirement&amp;gt;&amp;gt;&lt;br&gt;&lt;strong&gt;Mesures&lt;/strong&gt;" style="swimlane;fontStyle=0;align=center;verticalAlign=top;childLayout=stackLayout;horizontal=1;startSize=50;horizontalStack=0;resizeParent=1;resizeParentMax=0;resizeLast=0;collapsible=0;marginBottom=0;html=1;whiteSpace=wrap;" parent="RDQSzWo8FJggzqwJXyAk-1" vertex="1">
          <mxGeometry x="190" y="180" width="180" height="100" as="geometry" />
        </mxCell>
        <mxCell id="RDQSzWo8FJggzqwJXyAk-21" value="Id = &quot;1.1&quot;&lt;br&gt;Text = &quot; &quot;" style="text;html=1;strokeColor=none;fillColor=none;align=left;verticalAlign=middle;spacingLeft=4;spacingRight=4;overflow=hidden;rotatable=0;points=[[0,0.5],[1,0.5]];portConstraint=eastwest;whiteSpace=wrap;" parent="RDQSzWo8FJggzqwJXyAk-20" vertex="1">
          <mxGeometry y="50" width="180" height="50" as="geometry" />
        </mxCell>
        <mxCell id="RDQSzWo8FJggzqwJXyAk-22" value="" style="endArrow=open;startArrow=circlePlus;endFill=0;startFill=0;endSize=8;html=1;rounded=0;exitX=0;exitY=0.5;exitDx=0;exitDy=0;entryX=0.5;entryY=0;entryDx=0;entryDy=0;" parent="RDQSzWo8FJggzqwJXyAk-1" source="RDQSzWo8FJggzqwJXyAk-3" target="RDQSzWo8FJggzqwJXyAk-20" edge="1">
          <mxGeometry width="160" relative="1" as="geometry">
            <mxPoint x="570" y="380" as="sourcePoint" />
            <mxPoint x="730" y="380" as="targetPoint" />
          </mxGeometry>
        </mxCell>
        <mxCell id="RDQSzWo8FJggzqwJXyAk-25" value="&amp;lt;&amp;lt;requirement&amp;gt;&amp;gt;&lt;br&gt;&lt;strong&gt;Affichage&lt;/strong&gt;" style="swimlane;fontStyle=0;align=center;verticalAlign=top;childLayout=stackLayout;horizontal=1;startSize=50;horizontalStack=0;resizeParent=1;resizeParentMax=0;resizeLast=0;collapsible=0;marginBottom=0;html=1;whiteSpace=wrap;" parent="RDQSzWo8FJggzqwJXyAk-1" vertex="1">
          <mxGeometry x="760" y="170" width="180" height="100" as="geometry" />
        </mxCell>
        <mxCell id="RDQSzWo8FJggzqwJXyAk-26" value="Id = &quot;1.2&quot;&lt;br&gt;Text = &quot; &quot;&amp;nbsp;" style="text;html=1;strokeColor=none;fillColor=none;align=left;verticalAlign=middle;spacingLeft=4;spacingRight=4;overflow=hidden;rotatable=0;points=[[0,0.5],[1,0.5]];portConstraint=eastwest;whiteSpace=wrap;" parent="RDQSzWo8FJggzqwJXyAk-25" vertex="1">
          <mxGeometry y="50" width="180" height="50" as="geometry" />
        </mxCell>
        <mxCell id="RDQSzWo8FJggzqwJXyAk-28" value="" style="endArrow=open;startArrow=circlePlus;endFill=0;startFill=0;endSize=8;html=1;rounded=0;exitX=0.553;exitY=1.074;exitDx=0;exitDy=0;exitPerimeter=0;entryX=0.5;entryY=0;entryDx=0;entryDy=0;" parent="RDQSzWo8FJggzqwJXyAk-1" source="RDQSzWo8FJggzqwJXyAk-3" target="RDQSzWo8FJggzqwJXyAk-25" edge="1">
          <mxGeometry width="160" relative="1" as="geometry">
            <mxPoint x="570" y="380" as="sourcePoint" />
            <mxPoint x="730" y="380" as="targetPoint" />
          </mxGeometry>
        </mxCell>
        <mxCell id="RDQSzWo8FJggzqwJXyAk-31" value="&amp;lt;&amp;lt;requirement&amp;gt;&amp;gt;&lt;br&gt;&lt;strong&gt;Stockage&lt;/strong&gt;" style="swimlane;fontStyle=0;align=center;verticalAlign=top;childLayout=stackLayout;horizontal=1;startSize=50;horizontalStack=0;resizeParent=1;resizeParentMax=0;resizeLast=0;collapsible=0;marginBottom=0;html=1;whiteSpace=wrap;" parent="RDQSzWo8FJggzqwJXyAk-1" vertex="1">
          <mxGeometry x="1190" y="300" width="180" height="100" as="geometry" />
        </mxCell>
        <mxCell id="RDQSzWo8FJggzqwJXyAk-32" value="Id = &quot;1.3&quot;&lt;br&gt;Text = &quot; &quot;" style="text;html=1;strokeColor=none;fillColor=none;align=left;verticalAlign=middle;spacingLeft=4;spacingRight=4;overflow=hidden;rotatable=0;points=[[0,0.5],[1,0.5]];portConstraint=eastwest;whiteSpace=wrap;" parent="RDQSzWo8FJggzqwJXyAk-31" vertex="1">
          <mxGeometry y="50" width="180" height="50" as="geometry" />
        </mxCell>
        <mxCell id="RDQSzWo8FJggzqwJXyAk-33" value="&amp;lt;&amp;lt;requirement&amp;gt;&amp;gt;&lt;br&gt;&lt;b&gt;Communication&lt;/b&gt;" style="swimlane;fontStyle=0;align=center;verticalAlign=top;childLayout=stackLayout;horizontal=1;startSize=50;horizontalStack=0;resizeParent=1;resizeParentMax=0;resizeLast=0;collapsible=0;marginBottom=0;html=1;whiteSpace=wrap;" parent="RDQSzWo8FJggzqwJXyAk-1" vertex="1">
          <mxGeometry x="1500" y="250" width="180" height="100" as="geometry" />
        </mxCell>
        <mxCell id="RDQSzWo8FJggzqwJXyAk-34" value="Id = &quot;1.4&quot;&lt;br&gt;Text = &quot; &quot;" style="text;html=1;strokeColor=none;fillColor=none;align=left;verticalAlign=middle;spacingLeft=4;spacingRight=4;overflow=hidden;rotatable=0;points=[[0,0.5],[1,0.5]];portConstraint=eastwest;whiteSpace=wrap;" parent="RDQSzWo8FJggzqwJXyAk-33" vertex="1">
          <mxGeometry y="50" width="180" height="50" as="geometry" />
        </mxCell>
        <mxCell id="RDQSzWo8FJggzqwJXyAk-35" value="&amp;lt;&amp;lt;requirement&amp;gt;&amp;gt;&lt;br&gt;&lt;strong&gt;Alertes&lt;/strong&gt;" style="swimlane;fontStyle=0;align=center;verticalAlign=top;childLayout=stackLayout;horizontal=1;startSize=50;horizontalStack=0;resizeParent=1;resizeParentMax=0;resizeLast=0;collapsible=0;marginBottom=0;html=1;whiteSpace=wrap;" parent="RDQSzWo8FJggzqwJXyAk-1" vertex="1">
          <mxGeometry x="2140" y="60" width="180" height="100" as="geometry" />
        </mxCell>
        <mxCell id="RDQSzWo8FJggzqwJXyAk-36" value="Id = &quot;1.5&quot;&lt;br&gt;Text = &quot; &quot;" style="text;html=1;strokeColor=none;fillColor=none;align=left;verticalAlign=middle;spacingLeft=4;spacingRight=4;overflow=hidden;rotatable=0;points=[[0,0.5],[1,0.5]];portConstraint=eastwest;whiteSpace=wrap;" parent="RDQSzWo8FJggzqwJXyAk-35" vertex="1">
          <mxGeometry y="50" width="180" height="50" as="geometry" />
        </mxCell>
        <mxCell id="RDQSzWo8FJggzqwJXyAk-40" value="" style="endArrow=open;startArrow=circlePlus;endFill=0;startFill=0;endSize=8;html=1;rounded=0;exitX=0.744;exitY=1.037;exitDx=0;exitDy=0;exitPerimeter=0;entryX=0.5;entryY=0;entryDx=0;entryDy=0;" parent="RDQSzWo8FJggzqwJXyAk-1" source="RDQSzWo8FJggzqwJXyAk-3" target="RDQSzWo8FJggzqwJXyAk-31" edge="1">
          <mxGeometry width="160" relative="1" as="geometry">
            <mxPoint x="1080" y="134" as="sourcePoint" />
            <mxPoint x="800" y="250" as="targetPoint" />
          </mxGeometry>
        </mxCell>
        <mxCell id="RDQSzWo8FJggzqwJXyAk-41" value="" style="endArrow=open;startArrow=circlePlus;endFill=0;startFill=0;endSize=8;html=1;rounded=0;exitX=1.006;exitY=0.894;exitDx=0;exitDy=0;exitPerimeter=0;entryX=0.25;entryY=0;entryDx=0;entryDy=0;" parent="RDQSzWo8FJggzqwJXyAk-1" source="RDQSzWo8FJggzqwJXyAk-3" target="RDQSzWo8FJggzqwJXyAk-33" edge="1">
          <mxGeometry width="160" relative="1" as="geometry">
            <mxPoint x="1410" y="130" as="sourcePoint" />
            <mxPoint x="1130" y="246" as="targetPoint" />
          </mxGeometry>
        </mxCell>
        <mxCell id="RDQSzWo8FJggzqwJXyAk-42" value="" style="endArrow=open;startArrow=circlePlus;endFill=0;startFill=0;endSize=8;html=1;rounded=0;exitX=0.998;exitY=0.266;exitDx=0;exitDy=0;exitPerimeter=0;entryX=-0.009;entryY=0.023;entryDx=0;entryDy=0;entryPerimeter=0;" parent="RDQSzWo8FJggzqwJXyAk-1" source="RDQSzWo8FJggzqwJXyAk-3" target="RDQSzWo8FJggzqwJXyAk-36" edge="1">
          <mxGeometry width="160" relative="1" as="geometry">
            <mxPoint x="1100" y="154" as="sourcePoint" />
            <mxPoint x="820" y="270" as="targetPoint" />
          </mxGeometry>
        </mxCell>
        <mxCell id="RDQSzWo8FJggzqwJXyAk-44" value="&amp;lt;&amp;lt;requirement&amp;gt;&amp;gt;&lt;br&gt;&lt;b&gt;Stockage SD (format CSV)&lt;/b&gt;" style="swimlane;fontStyle=0;align=center;verticalAlign=top;childLayout=stackLayout;horizontal=1;startSize=50;horizontalStack=0;resizeParent=1;resizeParentMax=0;resizeLast=0;collapsible=0;marginBottom=0;html=1;whiteSpace=wrap;" parent="RDQSzWo8FJggzqwJXyAk-1" vertex="1">
          <mxGeometry x="1200" y="530" width="180" height="190" as="geometry" />
        </mxCell>
        <mxCell id="RDQSzWo8FJggzqwJXyAk-45" value="Id = &quot;1.3.1&quot;&lt;br&gt;Text = &quot;Enregistrement des données : Température, humidité, date et heure sauvegardées sur carte SD en format CSV pour une exploitation facile.&quot;" style="text;html=1;strokeColor=none;fillColor=none;align=left;verticalAlign=middle;spacingLeft=4;spacingRight=4;overflow=hidden;rotatable=0;points=[[0,0.5],[1,0.5]];portConstraint=eastwest;whiteSpace=wrap;" parent="RDQSzWo8FJggzqwJXyAk-44" vertex="1">
          <mxGeometry y="50" width="180" height="140" as="geometry" />
        </mxCell>
        <mxCell id="RDQSzWo8FJggzqwJXyAk-46" value="&amp;lt;&amp;lt;requirement&amp;gt;&amp;gt;&lt;br&gt;&lt;b&gt;&amp;nbsp;Historique des mesures&lt;/b&gt;" style="swimlane;fontStyle=0;align=center;verticalAlign=top;childLayout=stackLayout;horizontal=1;startSize=50;horizontalStack=0;resizeParent=1;resizeParentMax=0;resizeLast=0;collapsible=0;marginBottom=0;html=1;whiteSpace=wrap;" parent="RDQSzWo8FJggzqwJXyAk-1" vertex="1">
          <mxGeometry x="1440" y="510" width="180" height="180" as="geometry" />
        </mxCell>
        <mxCell id="RDQSzWo8FJggzqwJXyAk-47" value="Id = &quot;1.3.2&quot;&lt;br&gt;Text = &quot;Les mesures sont stockées de manière à permettre la consultation des historiques. Cela permet à l&#39;utilisateur d&#39;analyser les tendances et de générer des rapports.&quot;" style="text;html=1;strokeColor=none;fillColor=none;align=left;verticalAlign=middle;spacingLeft=4;spacingRight=4;overflow=hidden;rotatable=0;points=[[0,0.5],[1,0.5]];portConstraint=eastwest;whiteSpace=wrap;" parent="RDQSzWo8FJggzqwJXyAk-46" vertex="1">
          <mxGeometry y="50" width="180" height="130" as="geometry" />
        </mxCell>
        <mxCell id="RDQSzWo8FJggzqwJXyAk-48" value="&amp;lt;&amp;lt;requirement&amp;gt;&amp;gt;&lt;br&gt;&lt;b&gt;&amp;nbsp;Communication WiFi&lt;/b&gt;" style="swimlane;fontStyle=0;align=center;verticalAlign=top;childLayout=stackLayout;horizontal=1;startSize=50;horizontalStack=0;resizeParent=1;resizeParentMax=0;resizeLast=0;collapsible=0;marginBottom=0;html=1;whiteSpace=wrap;" parent="RDQSzWo8FJggzqwJXyAk-1" vertex="1">
          <mxGeometry x="1710" y="400" width="180" height="180" as="geometry" />
        </mxCell>
        <mxCell id="RDQSzWo8FJggzqwJXyAk-49" value="Id = &quot;1.4.1&quot;&lt;br&gt;Text = &quot;La station doit être équipée d&#39;un module WiFi pour permettre la communication sans fil avec un serveur ou une interface web. Cela permet l&#39;accès à distance aux données.&quot;" style="text;html=1;strokeColor=none;fillColor=none;align=left;verticalAlign=middle;spacingLeft=4;spacingRight=4;overflow=hidden;rotatable=0;points=[[0,0.5],[1,0.5]];portConstraint=eastwest;whiteSpace=wrap;" parent="RDQSzWo8FJggzqwJXyAk-48" vertex="1">
          <mxGeometry y="50" width="180" height="130" as="geometry" />
        </mxCell>
        <mxCell id="RDQSzWo8FJggzqwJXyAk-50" value="&amp;lt;&amp;lt;requirement&amp;gt;&amp;gt;&lt;br&gt;&lt;b&gt;Transmission des données&lt;/b&gt;" style="swimlane;fontStyle=0;align=center;verticalAlign=top;childLayout=stackLayout;horizontal=1;startSize=50;horizontalStack=0;resizeParent=1;resizeParentMax=0;resizeLast=0;collapsible=0;marginBottom=0;html=1;whiteSpace=wrap;" parent="RDQSzWo8FJggzqwJXyAk-1" vertex="1">
          <mxGeometry x="1950" y="630" width="180" height="180" as="geometry" />
        </mxCell>
        <mxCell id="RDQSzWo8FJggzqwJXyAk-51" value="Id = &quot;1.4.2&quot;&lt;br&gt;Text = &quot;La station doit pouvoir transmettre les données collectées à une interface web ou à un serveur à des fins de surveillance à distance, d&#39;archivage ou de traitement.&quot;" style="text;html=1;strokeColor=none;fillColor=none;align=left;verticalAlign=middle;spacingLeft=4;spacingRight=4;overflow=hidden;rotatable=0;points=[[0,0.5],[1,0.5]];portConstraint=eastwest;whiteSpace=wrap;" parent="RDQSzWo8FJggzqwJXyAk-50" vertex="1">
          <mxGeometry y="50" width="180" height="130" as="geometry" />
        </mxCell>
        <mxCell id="RDQSzWo8FJggzqwJXyAk-52" value="&amp;lt;&amp;lt;requirement&amp;gt;&amp;gt;&lt;br&gt;&lt;b&gt;Gestion des seuils configurables&lt;/b&gt;" style="swimlane;fontStyle=0;align=center;verticalAlign=top;childLayout=stackLayout;horizontal=1;startSize=50;horizontalStack=0;resizeParent=1;resizeParentMax=0;resizeLast=0;collapsible=0;marginBottom=0;html=1;whiteSpace=wrap;" parent="RDQSzWo8FJggzqwJXyAk-1" vertex="1">
          <mxGeometry x="2150" y="290" width="180" height="180" as="geometry" />
        </mxCell>
        <mxCell id="RDQSzWo8FJggzqwJXyAk-53" value="Id = &quot;1.5.1&quot;&lt;br&gt;Text = &quot;Les utilisateurs doivent pouvoir définir des seuils d&#39;alerte pour la température et l&#39;humidité. Lorsqu&#39;une mesure dépasse ces seuils, une alerte sera générée.&quot;" style="text;html=1;strokeColor=none;fillColor=none;align=left;verticalAlign=middle;spacingLeft=4;spacingRight=4;overflow=hidden;rotatable=0;points=[[0,0.5],[1,0.5]];portConstraint=eastwest;whiteSpace=wrap;" parent="RDQSzWo8FJggzqwJXyAk-52" vertex="1">
          <mxGeometry y="50" width="180" height="130" as="geometry" />
        </mxCell>
        <mxCell id="RDQSzWo8FJggzqwJXyAk-54" value="&amp;lt;&amp;lt;requirement&amp;gt;&amp;gt;&lt;br&gt;&lt;b&gt;Notification des dépassements&lt;/b&gt;" style="swimlane;fontStyle=0;align=center;verticalAlign=top;childLayout=stackLayout;horizontal=1;startSize=50;horizontalStack=0;resizeParent=1;resizeParentMax=0;resizeLast=0;collapsible=0;marginBottom=0;html=1;whiteSpace=wrap;" parent="RDQSzWo8FJggzqwJXyAk-1" vertex="1">
          <mxGeometry x="2430" y="160" width="180" height="180" as="geometry" />
        </mxCell>
        <mxCell id="RDQSzWo8FJggzqwJXyAk-55" value="Id = &quot;1.5.2&quot;&lt;br&gt;Text = &quot;La station doit notifier l&#39;utilisateur en cas de dépassement de seuils d&#39;alerte, soit via l&#39;écran LCD, soit par une notification distante (par exemple par email ou sur une interface web).&quot;" style="text;html=1;strokeColor=none;fillColor=none;align=left;verticalAlign=middle;spacingLeft=4;spacingRight=4;overflow=hidden;rotatable=0;points=[[0,0.5],[1,0.5]];portConstraint=eastwest;whiteSpace=wrap;" parent="RDQSzWo8FJggzqwJXyAk-54" vertex="1">
          <mxGeometry y="50" width="180" height="130" as="geometry" />
        </mxCell>
        <mxCell id="RDQSzWo8FJggzqwJXyAk-77" value="&amp;lt;&amp;lt;requirement&amp;gt;&amp;gt;&lt;br&gt;&lt;b&gt;Exigences Techniques (ET)&lt;/b&gt;" style="swimlane;fontStyle=0;align=center;verticalAlign=top;childLayout=stackLayout;horizontal=1;startSize=40;horizontalStack=0;resizeParent=1;resizeParentMax=0;resizeLast=0;collapsible=0;marginBottom=0;html=1;whiteSpace=wrap;" parent="RDQSzWo8FJggzqwJXyAk-1" vertex="1">
          <mxGeometry x="2270" y="1160" width="180" height="90" as="geometry" />
        </mxCell>
        <mxCell id="RDQSzWo8FJggzqwJXyAk-78" value="Id = &quot;3&quot;&lt;br&gt;Text = &quot; &quot;" style="text;html=1;strokeColor=none;fillColor=none;align=left;verticalAlign=middle;spacingLeft=4;spacingRight=4;overflow=hidden;rotatable=0;points=[[0,0.5],[1,0.5]];portConstraint=eastwest;whiteSpace=wrap;" parent="RDQSzWo8FJggzqwJXyAk-77" vertex="1">
          <mxGeometry y="40" width="180" height="50" as="geometry" />
        </mxCell>
        <mxCell id="RDQSzWo8FJggzqwJXyAk-79" value="&amp;lt;&amp;lt;block&amp;gt;&amp;gt;&lt;br&gt;&lt;strong&gt;Arduino UNO&lt;/strong&gt;" style="swimlane;fontStyle=0;align=center;verticalAlign=top;childLayout=stackLayout;horizontal=1;startSize=50;horizontalStack=0;resizeParent=1;resizeParentMax=0;resizeLast=0;collapsible=0;marginBottom=0;html=1;whiteSpace=wrap;" parent="RDQSzWo8FJggzqwJXyAk-1" vertex="1">
          <mxGeometry x="2030" y="1430" width="180" height="61" as="geometry" />
        </mxCell>
        <mxCell id="RDQSzWo8FJggzqwJXyAk-81" value="&amp;lt;&amp;lt;block&amp;gt;&amp;gt;&lt;br&gt;&lt;b&gt;&amp;nbsp;Capteur DHT11&lt;/b&gt;" style="swimlane;fontStyle=0;align=center;verticalAlign=top;childLayout=stackLayout;horizontal=1;startSize=50;horizontalStack=0;resizeParent=1;resizeParentMax=0;resizeLast=0;collapsible=0;marginBottom=0;html=1;whiteSpace=wrap;" parent="RDQSzWo8FJggzqwJXyAk-1" vertex="1">
          <mxGeometry x="2290" y="1457.5" width="180" height="65" as="geometry" />
        </mxCell>
        <mxCell id="RDQSzWo8FJggzqwJXyAk-83" value="&amp;lt;&amp;lt;block&amp;gt;&amp;gt;&lt;br&gt;&lt;strong&gt;Écran LCD&lt;/strong&gt;" style="swimlane;fontStyle=0;align=center;verticalAlign=top;childLayout=stackLayout;horizontal=1;startSize=50;horizontalStack=0;resizeParent=1;resizeParentMax=0;resizeLast=0;collapsible=0;marginBottom=0;html=1;whiteSpace=wrap;" parent="RDQSzWo8FJggzqwJXyAk-1" vertex="1">
          <mxGeometry x="2540" y="1430" width="180" height="61" as="geometry" />
        </mxCell>
        <mxCell id="RDQSzWo8FJggzqwJXyAk-85" value="&amp;lt;&amp;lt;block&amp;gt;&amp;gt;&lt;br&gt;&lt;strong&gt;&amp;nbsp;Module SD&lt;/strong&gt;" style="swimlane;fontStyle=0;align=center;verticalAlign=top;childLayout=stackLayout;horizontal=1;startSize=50;horizontalStack=0;resizeParent=1;resizeParentMax=0;resizeLast=0;collapsible=0;marginBottom=0;html=1;whiteSpace=wrap;" parent="RDQSzWo8FJggzqwJXyAk-1" vertex="1">
          <mxGeometry x="2640" y="1280" width="180" height="60" as="geometry" />
        </mxCell>
        <mxCell id="RDQSzWo8FJggzqwJXyAk-104" value="&amp;lt;&amp;lt;block&amp;gt;&amp;gt;&lt;br&gt;&lt;strong&gt;Module WiFi&lt;/strong&gt;" style="swimlane;fontStyle=0;align=center;verticalAlign=top;childLayout=stackLayout;horizontal=1;startSize=50;horizontalStack=0;resizeParent=1;resizeParentMax=0;resizeLast=0;collapsible=0;marginBottom=0;html=1;whiteSpace=wrap;" parent="RDQSzWo8FJggzqwJXyAk-1" vertex="1">
          <mxGeometry x="2650" y="1130" width="180" height="60" as="geometry" />
        </mxCell>
        <mxCell id="u-cOXvga4k2IvlTGFktI-2" value="&amp;lt;&amp;lt;satisfy&amp;gt;&amp;gt;" style="html=1;verticalAlign=bottom;labelBackgroundColor=none;endArrow=open;endFill=0;dashed=1;rounded=0;exitX=0.5;exitY=0;exitDx=0;exitDy=0;entryX=0.995;entryY=1.005;entryDx=0;entryDy=0;entryPerimeter=0;" parent="RDQSzWo8FJggzqwJXyAk-1" source="RDQSzWo8FJggzqwJXyAk-83" target="RDQSzWo8FJggzqwJXyAk-78" edge="1">
          <mxGeometry width="160" relative="1" as="geometry">
            <mxPoint x="2460" y="1470" as="sourcePoint" />
            <mxPoint x="2070" y="1415" as="targetPoint" />
          </mxGeometry>
        </mxCell>
        <mxCell id="u-cOXvga4k2IvlTGFktI-3" value="&amp;lt;&amp;lt;satisfy&amp;gt;&amp;gt;" style="html=1;verticalAlign=bottom;labelBackgroundColor=none;endArrow=open;endFill=0;dashed=1;rounded=0;entryX=1;entryY=0.5;entryDx=0;entryDy=0;exitX=0;exitY=0.75;exitDx=0;exitDy=0;" parent="RDQSzWo8FJggzqwJXyAk-1" source="RDQSzWo8FJggzqwJXyAk-85" target="RDQSzWo8FJggzqwJXyAk-78" edge="1">
          <mxGeometry width="160" relative="1" as="geometry">
            <mxPoint x="2640" y="1368" as="sourcePoint" />
            <mxPoint x="2360" y="1360" as="targetPoint" />
          </mxGeometry>
        </mxCell>
        <mxCell id="u-cOXvga4k2IvlTGFktI-4" value="&amp;lt;&amp;lt;satisfy&amp;gt;&amp;gt;" style="html=1;verticalAlign=bottom;labelBackgroundColor=none;endArrow=open;endFill=0;dashed=1;rounded=0;exitX=0;exitY=0.75;exitDx=0;exitDy=0;entryX=1;entryY=0;entryDx=0;entryDy=0;" parent="RDQSzWo8FJggzqwJXyAk-1" source="RDQSzWo8FJggzqwJXyAk-104" target="RDQSzWo8FJggzqwJXyAk-77" edge="1">
          <mxGeometry width="160" relative="1" as="geometry">
            <mxPoint x="2650" y="1155" as="sourcePoint" />
            <mxPoint x="2409" y="1295" as="targetPoint" />
          </mxGeometry>
        </mxCell>
        <mxCell id="u-cOXvga4k2IvlTGFktI-5" value="&amp;lt;&amp;lt;satisfy&amp;gt;&amp;gt;" style="html=1;verticalAlign=bottom;labelBackgroundColor=none;endArrow=open;endFill=0;dashed=1;rounded=0;exitX=0.5;exitY=0;exitDx=0;exitDy=0;entryX=0.106;entryY=1.021;entryDx=0;entryDy=0;entryPerimeter=0;" parent="RDQSzWo8FJggzqwJXyAk-1" source="RDQSzWo8FJggzqwJXyAk-81" target="RDQSzWo8FJggzqwJXyAk-78" edge="1">
          <mxGeometry width="160" relative="1" as="geometry">
            <mxPoint x="2240" y="1440" as="sourcePoint" />
            <mxPoint x="2139" y="1380" as="targetPoint" />
          </mxGeometry>
        </mxCell>
        <mxCell id="u-cOXvga4k2IvlTGFktI-6" value="&amp;lt;&amp;lt;satisfy&amp;gt;&amp;gt;" style="html=1;verticalAlign=bottom;labelBackgroundColor=none;endArrow=open;endFill=0;dashed=1;rounded=0;exitX=0.5;exitY=0;exitDx=0;exitDy=0;entryX=0.005;entryY=0.012;entryDx=0;entryDy=0;entryPerimeter=0;" parent="RDQSzWo8FJggzqwJXyAk-1" source="RDQSzWo8FJggzqwJXyAk-79" target="RDQSzWo8FJggzqwJXyAk-78" edge="1">
          <mxGeometry width="160" relative="1" as="geometry">
            <mxPoint x="2130" y="1509" as="sourcePoint" />
            <mxPoint x="1859" y="1320" as="targetPoint" />
          </mxGeometry>
        </mxCell>
        <mxCell id="u-cOXvga4k2IvlTGFktI-9" value="&amp;lt;&amp;lt;refine&amp;gt;&amp;gt;" style="html=1;verticalAlign=bottom;labelBackgroundColor=none;endArrow=open;endFill=0;dashed=1;rounded=0;exitX=0.5;exitY=0;exitDx=0;exitDy=0;entryX=0.9;entryY=1.02;entryDx=0;entryDy=0;entryPerimeter=0;" parent="RDQSzWo8FJggzqwJXyAk-1" source="RDQSzWo8FJggzqwJXyAk-16" target="RDQSzWo8FJggzqwJXyAk-26" edge="1">
          <mxGeometry x="-0.0042" width="160" relative="1" as="geometry">
            <mxPoint x="830" y="380" as="sourcePoint" />
            <mxPoint x="851" y="300" as="targetPoint" />
            <mxPoint as="offset" />
          </mxGeometry>
        </mxCell>
        <mxCell id="u-cOXvga4k2IvlTGFktI-10" value="&amp;lt;&amp;lt;refine&amp;gt;&amp;gt;" style="html=1;verticalAlign=bottom;labelBackgroundColor=none;endArrow=open;endFill=0;dashed=1;rounded=0;exitX=0.5;exitY=0;exitDx=0;exitDy=0;entryX=0.772;entryY=1.005;entryDx=0;entryDy=0;entryPerimeter=0;" parent="RDQSzWo8FJggzqwJXyAk-1" source="RDQSzWo8FJggzqwJXyAk-12" target="RDQSzWo8FJggzqwJXyAk-21" edge="1">
          <mxGeometry x="-0.0042" width="160" relative="1" as="geometry">
            <mxPoint x="330" y="450" as="sourcePoint" />
            <mxPoint x="351" y="370" as="targetPoint" />
            <mxPoint as="offset" />
          </mxGeometry>
        </mxCell>
        <mxCell id="u-cOXvga4k2IvlTGFktI-12" value="&amp;lt;&amp;lt;refine&amp;gt;&amp;gt;" style="html=1;verticalAlign=bottom;labelBackgroundColor=none;endArrow=open;endFill=0;dashed=1;rounded=0;exitX=0.5;exitY=0;exitDx=0;exitDy=0;entryX=0;entryY=1;entryDx=0;entryDy=0;" parent="RDQSzWo8FJggzqwJXyAk-1" source="RDQSzWo8FJggzqwJXyAk-4" target="RDQSzWo8FJggzqwJXyAk-20" edge="1">
          <mxGeometry x="-0.0042" width="160" relative="1" as="geometry">
            <mxPoint x="270" y="420" as="sourcePoint" />
            <mxPoint x="249" y="280" as="targetPoint" />
            <mxPoint as="offset" />
          </mxGeometry>
        </mxCell>
        <mxCell id="u-cOXvga4k2IvlTGFktI-13" value="&amp;lt;&amp;lt;refine&amp;gt;&amp;gt;" style="html=1;verticalAlign=bottom;labelBackgroundColor=none;endArrow=open;endFill=0;dashed=1;rounded=0;exitX=0.5;exitY=0;exitDx=0;exitDy=0;entryX=0.148;entryY=1.002;entryDx=0;entryDy=0;entryPerimeter=0;" parent="RDQSzWo8FJggzqwJXyAk-1" source="RDQSzWo8FJggzqwJXyAk-44" target="RDQSzWo8FJggzqwJXyAk-32" edge="1">
          <mxGeometry x="-0.0042" width="160" relative="1" as="geometry">
            <mxPoint x="1210" y="480" as="sourcePoint" />
            <mxPoint x="1189" y="340" as="targetPoint" />
            <mxPoint as="offset" />
          </mxGeometry>
        </mxCell>
        <mxCell id="u-cOXvga4k2IvlTGFktI-14" value="&amp;lt;&amp;lt;refine&amp;gt;&amp;gt;" style="html=1;verticalAlign=bottom;labelBackgroundColor=none;endArrow=open;endFill=0;dashed=1;rounded=0;exitX=0.25;exitY=0;exitDx=0;exitDy=0;entryX=1.002;entryY=1;entryDx=0;entryDy=0;entryPerimeter=0;" parent="RDQSzWo8FJggzqwJXyAk-1" source="RDQSzWo8FJggzqwJXyAk-46" target="RDQSzWo8FJggzqwJXyAk-32" edge="1">
          <mxGeometry x="-0.0042" width="160" relative="1" as="geometry">
            <mxPoint x="1360" y="450" as="sourcePoint" />
            <mxPoint x="1339" y="310" as="targetPoint" />
            <mxPoint as="offset" />
          </mxGeometry>
        </mxCell>
        <mxCell id="u-cOXvga4k2IvlTGFktI-15" value="&amp;lt;&amp;lt;refine&amp;gt;&amp;gt;" style="html=1;verticalAlign=bottom;labelBackgroundColor=none;endArrow=open;endFill=0;dashed=1;rounded=0;exitX=0.5;exitY=0;exitDx=0;exitDy=0;entryX=1;entryY=0.5;entryDx=0;entryDy=0;" parent="RDQSzWo8FJggzqwJXyAk-1" source="RDQSzWo8FJggzqwJXyAk-48" target="RDQSzWo8FJggzqwJXyAk-34" edge="1">
          <mxGeometry x="-0.0042" width="160" relative="1" as="geometry">
            <mxPoint x="1640" y="450" as="sourcePoint" />
            <mxPoint x="1619" y="310" as="targetPoint" />
            <mxPoint as="offset" />
          </mxGeometry>
        </mxCell>
        <mxCell id="u-cOXvga4k2IvlTGFktI-17" value="&amp;lt;&amp;lt;refine&amp;gt;&amp;gt;" style="html=1;verticalAlign=bottom;labelBackgroundColor=none;endArrow=open;endFill=0;dashed=1;rounded=0;exitX=0;exitY=0.5;exitDx=0;exitDy=0;entryX=1;entryY=0.5;entryDx=0;entryDy=0;" parent="RDQSzWo8FJggzqwJXyAk-1" source="RDQSzWo8FJggzqwJXyAk-55" target="RDQSzWo8FJggzqwJXyAk-36" edge="1">
          <mxGeometry x="-0.0042" width="160" relative="1" as="geometry">
            <mxPoint x="2130" y="290" as="sourcePoint" />
            <mxPoint x="2109" y="150" as="targetPoint" />
            <mxPoint as="offset" />
          </mxGeometry>
        </mxCell>
        <mxCell id="u-cOXvga4k2IvlTGFktI-18" value="&amp;lt;&amp;lt;refine&amp;gt;&amp;gt;" style="html=1;verticalAlign=bottom;labelBackgroundColor=none;endArrow=open;endFill=0;dashed=1;rounded=0;exitX=0.25;exitY=0;exitDx=0;exitDy=0;entryX=0.476;entryY=0.97;entryDx=0;entryDy=0;entryPerimeter=0;" parent="RDQSzWo8FJggzqwJXyAk-1" source="RDQSzWo8FJggzqwJXyAk-52" target="RDQSzWo8FJggzqwJXyAk-36" edge="1">
          <mxGeometry x="-0.0042" width="160" relative="1" as="geometry">
            <mxPoint x="2100" y="400" as="sourcePoint" />
            <mxPoint x="2079" y="260" as="targetPoint" />
            <mxPoint as="offset" />
          </mxGeometry>
        </mxCell>
        <mxCell id="u-cOXvga4k2IvlTGFktI-21" value="&amp;lt;&amp;lt;interfaceRequierement&amp;gt;&amp;gt;&lt;br&gt;&lt;strong&gt;Configuration des seuils d&#39;alerte&lt;/strong&gt;" style="swimlane;fontStyle=0;align=center;verticalAlign=top;childLayout=stackLayout;horizontal=1;startSize=50;horizontalStack=0;resizeParent=1;resizeParentMax=0;resizeLast=0;collapsible=0;marginBottom=0;html=1;whiteSpace=wrap;" parent="RDQSzWo8FJggzqwJXyAk-1" vertex="1">
          <mxGeometry x="830" y="830" width="180" height="180" as="geometry" />
        </mxCell>
        <mxCell id="u-cOXvga4k2IvlTGFktI-22" value="Id = &quot;1.2.2.1&quot;&lt;br&gt;Text = &quot;Configuration des seuils d&#39;alerte : Granularité de 0,1 unité pour température et humidité.&quot;" style="text;html=1;strokeColor=none;fillColor=none;align=left;verticalAlign=middle;spacingLeft=4;spacingRight=4;overflow=hidden;rotatable=0;points=[[0,0.5],[1,0.5]];portConstraint=eastwest;whiteSpace=wrap;" parent="u-cOXvga4k2IvlTGFktI-21" vertex="1">
          <mxGeometry y="50" width="180" height="130" as="geometry" />
        </mxCell>
        <mxCell id="u-cOXvga4k2IvlTGFktI-24" value="&amp;lt;&amp;lt;refine&amp;gt;&amp;gt;" style="html=1;verticalAlign=bottom;labelBackgroundColor=none;endArrow=open;endFill=0;dashed=1;rounded=0;exitX=0.5;exitY=0;exitDx=0;exitDy=0;entryX=0.433;entryY=1.008;entryDx=0;entryDy=0;entryPerimeter=0;" parent="RDQSzWo8FJggzqwJXyAk-1" source="u-cOXvga4k2IvlTGFktI-21" target="RDQSzWo8FJggzqwJXyAk-17" edge="1">
          <mxGeometry x="-0.0042" width="160" relative="1" as="geometry">
            <mxPoint x="670" y="640" as="sourcePoint" />
            <mxPoint x="660" y="560" as="targetPoint" />
            <mxPoint as="offset" />
          </mxGeometry>
        </mxCell>
        <mxCell id="u-cOXvga4k2IvlTGFktI-27" value="&amp;lt;&amp;lt;refine&amp;gt;&amp;gt;" style="html=1;verticalAlign=bottom;labelBackgroundColor=none;endArrow=open;endFill=0;dashed=1;rounded=0;exitX=0.5;exitY=0;exitDx=0;exitDy=0;entryX=0;entryY=0.5;entryDx=0;entryDy=0;" parent="RDQSzWo8FJggzqwJXyAk-1" source="u-cOXvga4k2IvlTGFktI-25" target="RDQSzWo8FJggzqwJXyAk-17" edge="1">
          <mxGeometry x="-0.0042" width="160" relative="1" as="geometry">
            <mxPoint x="679.9999999999998" y="706.49" as="sourcePoint" />
            <mxPoint x="716.1600000000003" y="560" as="targetPoint" />
            <mxPoint as="offset" />
          </mxGeometry>
        </mxCell>
        <mxCell id="u-cOXvga4k2IvlTGFktI-25" value="&amp;lt;&amp;lt;interfaceRequierement&amp;gt;&amp;gt;&lt;br&gt;&lt;strong&gt;Consultation des données&lt;/strong&gt;" style="swimlane;fontStyle=0;align=center;verticalAlign=top;childLayout=stackLayout;horizontal=1;startSize=50;horizontalStack=0;resizeParent=1;resizeParentMax=0;resizeLast=0;collapsible=0;marginBottom=0;html=1;whiteSpace=wrap;" parent="RDQSzWo8FJggzqwJXyAk-1" vertex="1">
          <mxGeometry x="730" y="610" width="180" height="180" as="geometry" />
        </mxCell>
        <mxCell id="u-cOXvga4k2IvlTGFktI-26" value="Id = &quot;1.2.2.2&quot;&lt;br&gt;Text = &quot;Visualisation des données : Graphiques en temps réel et consultation de l&#39;historique.&quot;" style="text;html=1;strokeColor=none;fillColor=none;align=left;verticalAlign=middle;spacingLeft=4;spacingRight=4;overflow=hidden;rotatable=0;points=[[0,0.5],[1,0.5]];portConstraint=eastwest;whiteSpace=wrap;" parent="u-cOXvga4k2IvlTGFktI-25" vertex="1">
          <mxGeometry y="50" width="180" height="130" as="geometry" />
        </mxCell>
        <mxCell id="u-cOXvga4k2IvlTGFktI-28" value="&amp;lt;&amp;lt;interfaceRequierement&amp;gt;&amp;gt;&lt;br&gt;&lt;strong&gt;Export des mesures enregistrées&lt;/strong&gt;" style="swimlane;fontStyle=0;align=center;verticalAlign=top;childLayout=stackLayout;horizontal=1;startSize=50;horizontalStack=0;resizeParent=1;resizeParentMax=0;resizeLast=0;collapsible=0;marginBottom=0;html=1;whiteSpace=wrap;" parent="RDQSzWo8FJggzqwJXyAk-1" vertex="1">
          <mxGeometry x="1040.5" y="830" width="180" height="180" as="geometry" />
        </mxCell>
        <mxCell id="u-cOXvga4k2IvlTGFktI-29" value="Id = &quot;1.2.2.3&quot;&lt;br&gt;Text = &quot;Export des données : Bouton dédié pour export en format CSV, accessible en moins de 3 clics.&quot;" style="text;html=1;strokeColor=none;fillColor=none;align=left;verticalAlign=middle;spacingLeft=4;spacingRight=4;overflow=hidden;rotatable=0;points=[[0,0.5],[1,0.5]];portConstraint=eastwest;whiteSpace=wrap;" parent="u-cOXvga4k2IvlTGFktI-28" vertex="1">
          <mxGeometry y="50" width="180" height="130" as="geometry" />
        </mxCell>
        <mxCell id="u-cOXvga4k2IvlTGFktI-30" value="&amp;lt;&amp;lt;refine&amp;gt;&amp;gt;" style="html=1;verticalAlign=bottom;labelBackgroundColor=none;endArrow=open;endFill=0;dashed=1;rounded=0;exitX=0.5;exitY=0;exitDx=0;exitDy=0;" parent="RDQSzWo8FJggzqwJXyAk-1" source="u-cOXvga4k2IvlTGFktI-28" target="RDQSzWo8FJggzqwJXyAk-17" edge="1">
          <mxGeometry x="-0.0042" width="160" relative="1" as="geometry">
            <mxPoint x="960" y="590" as="sourcePoint" />
            <mxPoint x="881" y="500" as="targetPoint" />
            <mxPoint as="offset" />
          </mxGeometry>
        </mxCell>
        <mxCell id="u-cOXvga4k2IvlTGFktI-31" value="&amp;lt;&amp;lt;block&amp;gt;&amp;gt;&lt;br&gt;&lt;strong&gt;&amp;nbsp;Module SD&lt;/strong&gt;" style="swimlane;fontStyle=0;align=center;verticalAlign=top;childLayout=stackLayout;horizontal=1;startSize=50;horizontalStack=0;resizeParent=1;resizeParentMax=0;resizeLast=0;collapsible=0;marginBottom=0;html=1;whiteSpace=wrap;" parent="RDQSzWo8FJggzqwJXyAk-1" vertex="1">
          <mxGeometry x="1310" y="840" width="180" height="60" as="geometry" />
        </mxCell>
        <mxCell id="u-cOXvga4k2IvlTGFktI-33" value="&amp;lt;&amp;lt;satisfy&amp;gt;&amp;gt;" style="html=1;verticalAlign=bottom;labelBackgroundColor=none;endArrow=open;endFill=0;dashed=1;rounded=0;exitX=0.5;exitY=0;exitDx=0;exitDy=0;entryX=0.671;entryY=1.029;entryDx=0;entryDy=0;entryPerimeter=0;" parent="RDQSzWo8FJggzqwJXyAk-1" source="u-cOXvga4k2IvlTGFktI-31" target="RDQSzWo8FJggzqwJXyAk-45" edge="1">
          <mxGeometry width="160" relative="1" as="geometry">
            <mxPoint x="1321" y="804" as="sourcePoint" />
            <mxPoint x="1320" y="530" as="targetPoint" />
          </mxGeometry>
        </mxCell>
        <mxCell id="u-cOXvga4k2IvlTGFktI-34" value="&amp;lt;&amp;lt;block&amp;gt;&amp;gt;&lt;br&gt;&lt;strong&gt;Module WiFi&lt;/strong&gt;" style="swimlane;fontStyle=0;align=center;verticalAlign=top;childLayout=stackLayout;horizontal=1;startSize=50;horizontalStack=0;resizeParent=1;resizeParentMax=0;resizeLast=0;collapsible=0;marginBottom=0;html=1;whiteSpace=wrap;" parent="RDQSzWo8FJggzqwJXyAk-1" vertex="1">
          <mxGeometry x="1690" y="690" width="180" height="60" as="geometry" />
        </mxCell>
        <mxCell id="u-cOXvga4k2IvlTGFktI-36" value="&amp;lt;&amp;lt;satisfy&amp;gt;&amp;gt;" style="html=1;verticalAlign=bottom;labelBackgroundColor=none;endArrow=open;endFill=0;dashed=1;rounded=0;exitX=0.5;exitY=0;exitDx=0;exitDy=0;entryX=0.482;entryY=1.043;entryDx=0;entryDy=0;entryPerimeter=0;" parent="RDQSzWo8FJggzqwJXyAk-1" source="u-cOXvga4k2IvlTGFktI-34" target="RDQSzWo8FJggzqwJXyAk-49" edge="1">
          <mxGeometry width="160" relative="1" as="geometry">
            <mxPoint x="1860" y="710" as="sourcePoint" />
            <mxPoint x="1660" y="715" as="targetPoint" />
          </mxGeometry>
        </mxCell>
        <mxCell id="u-cOXvga4k2IvlTGFktI-37" value="&amp;lt;&amp;lt;verify&amp;gt;&amp;gt;" style="html=1;verticalAlign=bottom;labelBackgroundColor=none;endArrow=open;endFill=0;dashed=1;rounded=0;exitX=0.5;exitY=0;exitDx=0;exitDy=0;entryX=1;entryY=0.5;entryDx=0;entryDy=0;" parent="RDQSzWo8FJggzqwJXyAk-1" source="RDQSzWo8FJggzqwJXyAk-50" target="RDQSzWo8FJggzqwJXyAk-49" edge="1">
          <mxGeometry width="160" relative="1" as="geometry">
            <mxPoint x="2030" y="630" as="sourcePoint" />
            <mxPoint x="2103" y="576" as="targetPoint" />
          </mxGeometry>
        </mxCell>
        <mxCell id="u-cOXvga4k2IvlTGFktI-38" value="&amp;lt;&amp;lt;block&amp;gt;&amp;gt;&lt;br&gt;&lt;b&gt;&amp;nbsp;Capteur DHT11&lt;/b&gt;" style="swimlane;fontStyle=0;align=center;verticalAlign=top;childLayout=stackLayout;horizontal=1;startSize=50;horizontalStack=0;resizeParent=1;resizeParentMax=0;resizeLast=0;collapsible=0;marginBottom=0;html=1;whiteSpace=wrap;" parent="RDQSzWo8FJggzqwJXyAk-1" vertex="1">
          <mxGeometry x="160" y="710" width="180" height="60" as="geometry" />
        </mxCell>
        <mxCell id="u-cOXvga4k2IvlTGFktI-40" value="&amp;lt;&amp;lt;satisfy&amp;gt;&amp;gt;" style="html=1;verticalAlign=bottom;labelBackgroundColor=none;endArrow=open;endFill=0;dashed=1;rounded=0;exitX=0.25;exitY=0;exitDx=0;exitDy=0;entryX=0.629;entryY=1.046;entryDx=0;entryDy=0;entryPerimeter=0;" parent="RDQSzWo8FJggzqwJXyAk-1" source="u-cOXvga4k2IvlTGFktI-38" target="RDQSzWo8FJggzqwJXyAk-5" edge="1">
          <mxGeometry width="160" relative="1" as="geometry">
            <mxPoint x="170" y="710" as="sourcePoint" />
            <mxPoint x="152" y="604" as="targetPoint" />
          </mxGeometry>
        </mxCell>
        <mxCell id="u-cOXvga4k2IvlTGFktI-41" value="&amp;lt;&amp;lt;satisfy&amp;gt;&amp;gt;" style="html=1;verticalAlign=bottom;labelBackgroundColor=none;endArrow=open;endFill=0;dashed=1;rounded=0;exitX=0.75;exitY=0;exitDx=0;exitDy=0;entryX=0.01;entryY=0.617;entryDx=0;entryDy=0;entryPerimeter=0;" parent="RDQSzWo8FJggzqwJXyAk-1" source="u-cOXvga4k2IvlTGFktI-38" target="RDQSzWo8FJggzqwJXyAk-13" edge="1">
          <mxGeometry width="160" relative="1" as="geometry">
            <mxPoint x="270" y="710" as="sourcePoint" />
            <mxPoint x="430" y="612" as="targetPoint" />
          </mxGeometry>
        </mxCell>
        <mxCell id="WxMpMinvwUPVcrDaituO-1" value="&amp;lt;&amp;lt;requirement&amp;gt;&amp;gt;&lt;br&gt;&lt;b&gt;Affichage LCD&lt;/b&gt;" style="swimlane;fontStyle=0;align=center;verticalAlign=top;childLayout=stackLayout;horizontal=1;startSize=50;horizontalStack=0;resizeParent=1;resizeParentMax=0;resizeLast=0;collapsible=0;marginBottom=0;html=1;whiteSpace=wrap;" parent="RDQSzWo8FJggzqwJXyAk-1" vertex="1">
          <mxGeometry x="590" y="375" width="180" height="180" as="geometry" />
        </mxCell>
        <mxCell id="WxMpMinvwUPVcrDaituO-2" value="Id = &quot;1.2.1&quot;&lt;br&gt;Text = &quot;Affichage des mesures : Écran LCD lisible en temps réel, mise à jour continue.&quot;" style="text;html=1;strokeColor=none;fillColor=none;align=left;verticalAlign=middle;spacingLeft=4;spacingRight=4;overflow=hidden;rotatable=0;points=[[0,0.5],[1,0.5]];portConstraint=eastwest;whiteSpace=wrap;" parent="WxMpMinvwUPVcrDaituO-1" vertex="1">
          <mxGeometry y="50" width="180" height="130" as="geometry" />
        </mxCell>
        <mxCell id="WxMpMinvwUPVcrDaituO-3" value="&amp;lt;&amp;lt;block&amp;gt;&amp;gt;&lt;br&gt;&lt;strong&gt;Écran LCD&lt;/strong&gt;" style="swimlane;fontStyle=0;align=center;verticalAlign=top;childLayout=stackLayout;horizontal=1;startSize=50;horizontalStack=0;resizeParent=1;resizeParentMax=0;resizeLast=0;collapsible=0;marginBottom=0;html=1;whiteSpace=wrap;" parent="RDQSzWo8FJggzqwJXyAk-1" vertex="1">
          <mxGeometry x="460" y="680" width="180" height="60" as="geometry" />
        </mxCell>
        <mxCell id="WxMpMinvwUPVcrDaituO-5" value="&amp;lt;&amp;lt;satisfy&amp;gt;&amp;gt;" style="html=1;verticalAlign=bottom;labelBackgroundColor=none;endArrow=open;endFill=0;dashed=1;rounded=0;exitX=0.75;exitY=0;exitDx=0;exitDy=0;entryX=0.199;entryY=1.035;entryDx=0;entryDy=0;entryPerimeter=0;" parent="RDQSzWo8FJggzqwJXyAk-1" source="WxMpMinvwUPVcrDaituO-3" target="WxMpMinvwUPVcrDaituO-2" edge="1">
          <mxGeometry width="160" relative="1" as="geometry">
            <mxPoint x="550" y="640" as="sourcePoint" />
            <mxPoint x="491" y="534" as="targetPoint" />
          </mxGeometry>
        </mxCell>
        <mxCell id="WxMpMinvwUPVcrDaituO-6" value="&amp;lt;&amp;lt;refine&amp;gt;&amp;gt;" style="html=1;verticalAlign=bottom;labelBackgroundColor=none;endArrow=open;endFill=0;dashed=1;rounded=0;exitX=0.75;exitY=0;exitDx=0;exitDy=0;entryX=-0.003;entryY=0.715;entryDx=0;entryDy=0;entryPerimeter=0;" parent="RDQSzWo8FJggzqwJXyAk-1" source="WxMpMinvwUPVcrDaituO-1" target="RDQSzWo8FJggzqwJXyAk-26" edge="1">
          <mxGeometry x="-0.0042" width="160" relative="1" as="geometry">
            <mxPoint x="470" y="350" as="sourcePoint" />
            <mxPoint x="362" y="196" as="targetPoint" />
            <mxPoint as="offset" />
          </mxGeometry>
        </mxCell>
        <mxCell id="RDQSzWo8FJggzqwJXyAk-62" value="&amp;lt;&amp;lt;requirement&amp;gt;&amp;gt;&lt;br&gt;&lt;b&gt;Exigences de Performance&lt;/b&gt;" style="swimlane;fontStyle=0;align=center;verticalAlign=top;childLayout=stackLayout;horizontal=1;startSize=40;horizontalStack=0;resizeParent=1;resizeParentMax=0;resizeLast=0;collapsible=0;marginBottom=0;html=1;whiteSpace=wrap;" parent="RDQSzWo8FJggzqwJXyAk-1" vertex="1">
          <mxGeometry x="390" y="1090" width="180" height="90" as="geometry" />
        </mxCell>
        <mxCell id="RDQSzWo8FJggzqwJXyAk-63" value="Id = &quot;2&quot;&lt;br&gt;Text = &quot; &quot;" style="text;html=1;strokeColor=none;fillColor=none;align=left;verticalAlign=middle;spacingLeft=4;spacingRight=4;overflow=hidden;rotatable=0;points=[[0,0.5],[1,0.5]];portConstraint=eastwest;whiteSpace=wrap;" parent="RDQSzWo8FJggzqwJXyAk-62" vertex="1">
          <mxGeometry y="40" width="180" height="50" as="geometry" />
        </mxCell>
        <mxCell id="RDQSzWo8FJggzqwJXyAk-64" value="&amp;lt;&amp;lt;Test Case&amp;gt;&amp;gt;&lt;br&gt;&lt;strong&gt;Précision température&lt;/strong&gt;" style="swimlane;fontStyle=0;align=center;verticalAlign=top;childLayout=stackLayout;horizontal=1;startSize=50;horizontalStack=0;resizeParent=1;resizeParentMax=0;resizeLast=0;collapsible=0;marginBottom=0;html=1;whiteSpace=wrap;" parent="RDQSzWo8FJggzqwJXyAk-1" vertex="1">
          <mxGeometry x="60" y="1325" width="180" height="180" as="geometry" />
        </mxCell>
        <mxCell id="RDQSzWo8FJggzqwJXyAk-65" value="Id = &quot;2.1&quot;&lt;br&gt;Text = &quot;La précision de la mesure de température doit être de ±2°C, assurant ainsi une marge d&#39;erreur acceptable pour les applications courantes de surveillance environnementale.&quot;" style="text;html=1;strokeColor=none;fillColor=none;align=left;verticalAlign=middle;spacingLeft=4;spacingRight=4;overflow=hidden;rotatable=0;points=[[0,0.5],[1,0.5]];portConstraint=eastwest;whiteSpace=wrap;" parent="RDQSzWo8FJggzqwJXyAk-64" vertex="1">
          <mxGeometry y="50" width="180" height="130" as="geometry" />
        </mxCell>
        <mxCell id="RDQSzWo8FJggzqwJXyAk-66" value="&amp;lt;&amp;lt;Test Case&amp;gt;&amp;gt;&lt;br&gt;&lt;b&gt;Précision humidité&lt;/b&gt;" style="swimlane;fontStyle=0;align=center;verticalAlign=top;childLayout=stackLayout;horizontal=1;startSize=50;horizontalStack=0;resizeParent=1;resizeParentMax=0;resizeLast=0;collapsible=0;marginBottom=0;html=1;whiteSpace=wrap;" parent="RDQSzWo8FJggzqwJXyAk-1" vertex="1">
          <mxGeometry x="300" y="1360" width="180" height="170" as="geometry" />
        </mxCell>
        <mxCell id="RDQSzWo8FJggzqwJXyAk-67" value="Id = &quot;2.2&quot;&lt;br&gt;Text = &quot;La précision de la mesure de l&#39;humidité doit être de 0.8% à 25°C, garantissant des données fiables même dans des environnements où l&#39;humidité est critique.&quot;" style="text;html=1;strokeColor=none;fillColor=none;align=left;verticalAlign=middle;spacingLeft=4;spacingRight=4;overflow=hidden;rotatable=0;points=[[0,0.5],[1,0.5]];portConstraint=eastwest;whiteSpace=wrap;" parent="RDQSzWo8FJggzqwJXyAk-66" vertex="1">
          <mxGeometry y="50" width="180" height="120" as="geometry" />
        </mxCell>
        <mxCell id="RDQSzWo8FJggzqwJXyAk-68" value="&amp;lt;&amp;lt;Test Case&amp;gt;&amp;gt;&lt;br&gt;&lt;strong&gt;Temps de réponse&lt;/strong&gt;" style="swimlane;fontStyle=0;align=center;verticalAlign=top;childLayout=stackLayout;horizontal=1;startSize=50;horizontalStack=0;resizeParent=1;resizeParentMax=0;resizeLast=0;collapsible=0;marginBottom=0;html=1;whiteSpace=wrap;" parent="RDQSzWo8FJggzqwJXyAk-1" vertex="1">
          <mxGeometry x="550" y="1374" width="180" height="200" as="geometry" />
        </mxCell>
        <mxCell id="RDQSzWo8FJggzqwJXyAk-69" value="Id = &quot;2.3&quot;&lt;br&gt;Text = &quot;Le temps de réponse de la station, c&#39;est-à-dire le temps entre la collecte de la mesure et l&#39;affichage des résultats, doit être inférieur à 2 secondes pour garantir des mises à jour rapides des données.&quot;" style="text;html=1;strokeColor=none;fillColor=none;align=left;verticalAlign=middle;spacingLeft=4;spacingRight=4;overflow=hidden;rotatable=0;points=[[0,0.5],[1,0.5]];portConstraint=eastwest;whiteSpace=wrap;" parent="RDQSzWo8FJggzqwJXyAk-68" vertex="1">
          <mxGeometry y="50" width="180" height="150" as="geometry" />
        </mxCell>
        <mxCell id="RDQSzWo8FJggzqwJXyAk-70" value="&amp;lt;&amp;lt;Test Case&amp;gt;&amp;gt;&lt;br&gt;&lt;b&gt;Fréquence mesure régulière&lt;/b&gt;" style="swimlane;fontStyle=0;align=center;verticalAlign=top;childLayout=stackLayout;horizontal=1;startSize=50;horizontalStack=0;resizeParent=1;resizeParentMax=0;resizeLast=0;collapsible=0;marginBottom=0;html=1;whiteSpace=wrap;" parent="RDQSzWo8FJggzqwJXyAk-1" vertex="1">
          <mxGeometry x="820" y="1350" width="180" height="190" as="geometry" />
        </mxCell>
        <mxCell id="RDQSzWo8FJggzqwJXyAk-71" value="Id = &quot;2.4&quot;&lt;br&gt;Text = &quot;La station doit mesurer la température et l&#39;humidité à intervalles réguliers (par exemple toutes les 5 secondes) pour assurer un suivi en temps réel et précis des conditions environnementales.&quot;" style="text;html=1;strokeColor=none;fillColor=none;align=left;verticalAlign=middle;spacingLeft=4;spacingRight=4;overflow=hidden;rotatable=0;points=[[0,0.5],[1,0.5]];portConstraint=eastwest;whiteSpace=wrap;" parent="RDQSzWo8FJggzqwJXyAk-70" vertex="1">
          <mxGeometry y="50" width="180" height="140" as="geometry" />
        </mxCell>
        <mxCell id="jL7SemI0jwJY7frP_2Wt-11" value="&amp;lt;&amp;lt;verify&amp;gt;&amp;gt;" style="endArrow=open;endSize=12;dashed=1;html=1;rounded=0;entryX=0.542;entryY=1.048;entryDx=0;entryDy=0;entryPerimeter=0;exitX=0.5;exitY=0;exitDx=0;exitDy=0;" parent="RDQSzWo8FJggzqwJXyAk-1" source="RDQSzWo8FJggzqwJXyAk-68" target="RDQSzWo8FJggzqwJXyAk-63" edge="1">
          <mxGeometry width="160" relative="1" as="geometry">
            <mxPoint x="80" y="860" as="sourcePoint" />
            <mxPoint x="240" y="860" as="targetPoint" />
          </mxGeometry>
        </mxCell>
        <mxCell id="jL7SemI0jwJY7frP_2Wt-12" value="&amp;lt;&amp;lt;verify&amp;gt;&amp;gt;" style="endArrow=open;endSize=12;dashed=1;html=1;rounded=0;entryX=1;entryY=0.5;entryDx=0;entryDy=0;exitX=0;exitY=0;exitDx=0;exitDy=0;" parent="RDQSzWo8FJggzqwJXyAk-1" source="RDQSzWo8FJggzqwJXyAk-70" target="RDQSzWo8FJggzqwJXyAk-63" edge="1">
          <mxGeometry width="160" relative="1" as="geometry">
            <mxPoint x="312" y="848" as="sourcePoint" />
            <mxPoint x="230" y="740" as="targetPoint" />
          </mxGeometry>
        </mxCell>
        <mxCell id="jL7SemI0jwJY7frP_2Wt-13" value="&amp;lt;&amp;lt;verify&amp;gt;&amp;gt;" style="endArrow=open;endSize=12;dashed=1;html=1;rounded=0;entryX=0.368;entryY=0.988;entryDx=0;entryDy=0;entryPerimeter=0;exitX=0.5;exitY=0;exitDx=0;exitDy=0;" parent="RDQSzWo8FJggzqwJXyAk-1" source="RDQSzWo8FJggzqwJXyAk-66" target="RDQSzWo8FJggzqwJXyAk-63" edge="1">
          <mxGeometry width="160" relative="1" as="geometry">
            <mxPoint x="132" y="870" as="sourcePoint" />
            <mxPoint x="50" y="762" as="targetPoint" />
          </mxGeometry>
        </mxCell>
        <mxCell id="jL7SemI0jwJY7frP_2Wt-15" value="&amp;lt;&amp;lt;verify&amp;gt;&amp;gt;" style="endArrow=open;endSize=12;dashed=1;html=1;rounded=0;entryX=0;entryY=0.5;entryDx=0;entryDy=0;exitX=0.5;exitY=0;exitDx=0;exitDy=0;" parent="RDQSzWo8FJggzqwJXyAk-1" source="RDQSzWo8FJggzqwJXyAk-64" target="RDQSzWo8FJggzqwJXyAk-63" edge="1">
          <mxGeometry width="160" relative="1" as="geometry">
            <mxPoint x="-330" y="780" as="sourcePoint" />
            <mxPoint x="-182" y="671" as="targetPoint" />
          </mxGeometry>
        </mxCell>
        <mxCell id="RDQSzWo8FJggzqwJXyAk-92" value="&amp;lt;&amp;lt;requirement&amp;gt;&amp;gt;&lt;br&gt;&lt;b&gt;Exigences Environnementales&lt;/b&gt;" style="swimlane;fontStyle=0;align=center;verticalAlign=top;childLayout=stackLayout;horizontal=1;startSize=40;horizontalStack=0;resizeParent=1;resizeParentMax=0;resizeLast=0;collapsible=0;marginBottom=0;html=1;whiteSpace=wrap;" parent="RDQSzWo8FJggzqwJXyAk-1" vertex="1">
          <mxGeometry x="1410" y="1190" width="180" height="90" as="geometry" />
        </mxCell>
        <mxCell id="RDQSzWo8FJggzqwJXyAk-93" value="Id = &quot;4&quot;&lt;br&gt;Text = &quot; &quot;" style="text;html=1;strokeColor=none;fillColor=none;align=left;verticalAlign=middle;spacingLeft=4;spacingRight=4;overflow=hidden;rotatable=0;points=[[0,0.5],[1,0.5]];portConstraint=eastwest;whiteSpace=wrap;" parent="RDQSzWo8FJggzqwJXyAk-92" vertex="1">
          <mxGeometry y="40" width="180" height="50" as="geometry" />
        </mxCell>
        <mxCell id="RDQSzWo8FJggzqwJXyAk-96" value="&amp;lt;&amp;lt;requirement&amp;gt;&amp;gt;&lt;br&gt;&lt;strong&gt;&amp;nbsp;Température&lt;/strong&gt;" style="swimlane;fontStyle=0;align=center;verticalAlign=top;childLayout=stackLayout;horizontal=1;startSize=50;horizontalStack=0;resizeParent=1;resizeParentMax=0;resizeLast=0;collapsible=0;marginBottom=0;html=1;whiteSpace=wrap;" parent="RDQSzWo8FJggzqwJXyAk-1" vertex="1">
          <mxGeometry x="1190" y="1390" width="180" height="210" as="geometry" />
        </mxCell>
        <mxCell id="RDQSzWo8FJggzqwJXyAk-97" value="Id = &quot;4.1&quot;&lt;br&gt;Text = &quot;La station doit être capable de fonctionner efficacement dans des environnements où la température varie entre -10°C et +50°C, ce qui la rend adaptée à une utilisation dans une variété de lieux (intérieurs, entrepôts, etc.).&quot;" style="text;html=1;strokeColor=none;fillColor=none;align=left;verticalAlign=middle;spacingLeft=4;spacingRight=4;overflow=hidden;rotatable=0;points=[[0,0.5],[1,0.5]];portConstraint=eastwest;whiteSpace=wrap;" parent="RDQSzWo8FJggzqwJXyAk-96" vertex="1">
          <mxGeometry y="50" width="180" height="160" as="geometry" />
        </mxCell>
        <mxCell id="RDQSzWo8FJggzqwJXyAk-98" value="&amp;lt;&amp;lt;requirement&amp;gt;&amp;gt;&lt;br&gt;&lt;b&gt;Humidité&lt;/b&gt;" style="swimlane;fontStyle=0;align=center;verticalAlign=top;childLayout=stackLayout;horizontal=1;startSize=50;horizontalStack=0;resizeParent=1;resizeParentMax=0;resizeLast=0;collapsible=0;marginBottom=0;html=1;whiteSpace=wrap;" parent="RDQSzWo8FJggzqwJXyAk-1" vertex="1">
          <mxGeometry x="1500" y="1405" width="180" height="180" as="geometry" />
        </mxCell>
        <mxCell id="RDQSzWo8FJggzqwJXyAk-99" value="Id = &quot;4.2&quot;&lt;br&gt;Text = &quot;La station doit pouvoir mesurer l&#39;humidité dans toute la plage de 0 à 100%, couvrant ainsi tous les types d&#39;environnements, de très secs à très humides.&quot;" style="text;html=1;strokeColor=none;fillColor=none;align=left;verticalAlign=middle;spacingLeft=4;spacingRight=4;overflow=hidden;rotatable=0;points=[[0,0.5],[1,0.5]];portConstraint=eastwest;whiteSpace=wrap;" parent="RDQSzWo8FJggzqwJXyAk-98" vertex="1">
          <mxGeometry y="50" width="180" height="130" as="geometry" />
        </mxCell>
        <mxCell id="RDQSzWo8FJggzqwJXyAk-107" value="" style="endArrow=open;startArrow=circlePlus;endFill=0;startFill=0;endSize=8;html=1;rounded=0;exitX=0;exitY=0.5;exitDx=0;exitDy=0;entryX=1;entryY=0;entryDx=0;entryDy=0;" parent="RDQSzWo8FJggzqwJXyAk-1" source="RDQSzWo8FJggzqwJXyAk-93" target="RDQSzWo8FJggzqwJXyAk-96" edge="1">
          <mxGeometry width="160" relative="1" as="geometry">
            <mxPoint x="-135" y="1240" as="sourcePoint" />
            <mxPoint x="-390" y="1315" as="targetPoint" />
          </mxGeometry>
        </mxCell>
        <mxCell id="RDQSzWo8FJggzqwJXyAk-196" value="" style="endArrow=open;startArrow=circlePlus;endFill=0;startFill=0;endSize=8;html=1;rounded=0;entryX=0.25;entryY=0;entryDx=0;entryDy=0;" parent="RDQSzWo8FJggzqwJXyAk-1" source="RDQSzWo8FJggzqwJXyAk-93" target="RDQSzWo8FJggzqwJXyAk-98" edge="1">
          <mxGeometry width="160" relative="1" as="geometry">
            <mxPoint x="-10" y="1400.0000000000002" as="sourcePoint" />
            <mxPoint x="-35.51999999999998" y="1472.5000000000002" as="targetPoint" />
          </mxGeometry>
        </mxCell>
        <mxCell id="RDQSzWo8FJggzqwJXyAk-197" value="" style="endArrow=open;startArrow=circlePlus;endFill=0;startFill=0;endSize=8;html=1;rounded=0;exitX=1;exitY=0.5;exitDx=0;exitDy=0;entryX=0;entryY=0;entryDx=0;entryDy=0;" parent="RDQSzWo8FJggzqwJXyAk-1" source="RDQSzWo8FJggzqwJXyAk-93" target="RDQSzWo8FJggzqwJXyAk-100" edge="1">
          <mxGeometry width="160" relative="1" as="geometry">
            <mxPoint x="-40" y="1395" as="sourcePoint" />
            <mxPoint x="-250" y="1480" as="targetPoint" />
          </mxGeometry>
        </mxCell>
        <mxCell id="RDQSzWo8FJggzqwJXyAk-100" value="&amp;lt;&amp;lt;requirement&amp;gt;&amp;gt;&lt;br&gt;&lt;strong&gt;Protection contre perturbations&lt;/strong&gt;" style="swimlane;fontStyle=0;align=center;verticalAlign=top;childLayout=stackLayout;horizontal=1;startSize=50;horizontalStack=0;resizeParent=1;resizeParentMax=0;resizeLast=0;collapsible=0;marginBottom=0;html=1;whiteSpace=wrap;" parent="RDQSzWo8FJggzqwJXyAk-1" vertex="1">
          <mxGeometry x="1720" y="1390" width="180" height="200" as="geometry" />
        </mxCell>
        <mxCell id="RDQSzWo8FJggzqwJXyAk-101" value="Id = &quot;4.3&quot;&lt;br&gt;Text = &quot;La station doit être conçue pour résister à des perturbations électriques et magnétiques, garantissant la stabilité de ses mesures et une fiabilité dans des environnements industriels ou autres milieux sensibles.&quot;" style="text;html=1;strokeColor=none;fillColor=none;align=left;verticalAlign=middle;spacingLeft=4;spacingRight=4;overflow=hidden;rotatable=0;points=[[0,0.5],[1,0.5]];portConstraint=eastwest;whiteSpace=wrap;" parent="RDQSzWo8FJggzqwJXyAk-100" vertex="1">
          <mxGeometry y="50" width="180" height="150" as="geometry" />
        </mxCell>
      </root>
    </mxGraphModel>
  </diagram>
</mxfile>
